<svg width="2110" height="747" viewBox="0 0 2110 747" fill="none" xmlns="http://www.w3.org/2000/svg">
<path fill-rule="evenodd" clip-rule="evenodd" d="M626.755 117.826C658.789 117.826 684.758 91.3374 684.758 58.6631C684.758 91.3374 710.727 117.826 742.76 117.826C710.727 117.826 684.758 144.314 684.758 176.988C684.758 144.314 658.789 117.826 626.755 117.826Z" fill="#566980"/>
<path fill-rule="evenodd" clip-rule="evenodd" d="M742.765 234.49C710.732 234.49 684.763 208.262 684.763 175.908C684.763 143.554 710.732 117.325 742.765 117.325L928.374 117.325C960.407 117.325 986.376 143.554 986.376 175.908C986.376 208.262 960.407 234.49 928.374 234.49L742.765 234.49Z" fill="#7A94A7"/>
<path fill-rule="evenodd" clip-rule="evenodd" d="M173.509 117.822C141.755 117.822 116.013 91.5937 116.013 59.2397C116.013 26.8857 141.755 0.657156 173.509 0.657155L627.259 0.657129C659.013 0.657128 684.755 26.8857 684.755 59.2397C684.755 91.5936 659.013 117.822 627.259 117.822L173.509 117.822Z" fill="#7A94A7"/>
<path fill-rule="evenodd" clip-rule="evenodd" d="M632.599 373.617C664.633 373.617 690.601 347.128 690.601 314.454C690.601 347.128 716.57 373.617 748.604 373.617C716.57 373.617 690.601 400.105 690.601 432.779C690.601 400.105 664.633 373.617 632.599 373.617Z" fill="#566980"/>
<path fill-rule="evenodd" clip-rule="evenodd" d="M343 373.615C310.966 373.615 284.997 347.387 284.997 315.033C284.997 282.679 310.966 256.45 343 256.45L633.1 256.45C665.134 256.45 691.103 282.679 691.103 315.033C691.103 347.387 665.134 373.615 633.1 373.615L343 373.615Z" fill="#7A94A7"/>
<path fill-rule="evenodd" clip-rule="evenodd" d="M632.599 629.408C664.633 629.408 690.601 602.919 690.601 570.245C690.601 602.919 716.57 629.408 748.604 629.408C716.57 629.408 690.601 655.896 690.601 688.57C690.601 655.896 664.633 629.408 632.599 629.408Z" fill="#566980"/>
<path fill-rule="evenodd" clip-rule="evenodd" d="M545.109 629.406C513.076 629.406 487.107 603.178 487.107 570.824C487.107 538.47 513.076 512.241 545.109 512.241L632.594 512.241C664.628 512.241 690.597 538.47 690.597 570.824C690.597 603.178 664.628 629.406 632.594 629.406L545.109 629.406Z" fill="#7A94A7"/>
<path fill-rule="evenodd" clip-rule="evenodd" d="M1066.9 629.408C1098.93 629.408 1124.9 655.637 1124.9 687.991C1124.9 720.345 1098.93 746.573 1066.9 746.573L745.19 746.573C713.157 746.573 687.188 720.345 687.188 687.991C687.188 655.637 713.157 629.408 745.19 629.408L1066.9 629.408Z" fill="#7A94A7"/>
<path fill-rule="evenodd" clip-rule="evenodd" d="M1363.81 490.784C1331.78 490.784 1305.81 517.272 1305.81 549.946C1305.81 517.272 1279.84 490.784 1247.8 490.784C1279.84 490.784 1305.81 464.295 1305.81 431.621C1305.81 464.295 1331.78 490.784 1363.81 490.784Z" fill="#566980"/>
<path fill-rule="evenodd" clip-rule="evenodd" d="M1249.31 373.622C1281.35 373.622 1307.32 399.85 1307.32 432.204C1307.32 464.558 1281.35 490.787 1249.31 490.787L748.623 490.784C716.59 490.784 690.621 464.556 690.621 432.202C690.621 399.848 716.59 373.619 748.623 373.619L1249.31 373.622Z" fill="#7A94A7"/>
<path fill-rule="evenodd" clip-rule="evenodd" d="M1746.28 490.783C1778.32 490.783 1804.29 517.012 1804.29 549.366C1804.29 581.72 1778.32 607.948 1746.28 607.948L1363.81 607.948C1331.78 607.948 1305.81 581.72 1305.81 549.366C1305.81 517.012 1331.78 490.783 1363.81 490.783L1746.28 490.783Z" fill="#7A94A7"/>
<path fill-rule="evenodd" clip-rule="evenodd" d="M1363.81 234.993C1331.78 234.993 1305.81 261.481 1305.81 294.155C1305.81 261.481 1279.84 234.993 1247.8 234.993C1279.84 234.993 1305.81 208.504 1305.81 175.83C1305.81 208.504 1331.78 234.993 1363.81 234.993Z" fill="#566980"/>
<path fill-rule="evenodd" clip-rule="evenodd" d="M1247.81 117.826C1279.84 117.826 1305.81 144.055 1305.81 176.409C1305.81 208.763 1279.84 234.991 1247.81 234.991L1109.63 234.991C1077.59 234.991 1051.63 208.763 1051.63 176.409C1051.63 144.055 1077.59 117.826 1109.63 117.826L1247.81 117.826Z" fill="#7A94A7"/>
<path fill-rule="evenodd" clip-rule="evenodd" d="M2050.89 240.432C2082.92 240.432 2108.89 266.66 2108.89 299.014C2108.89 331.368 2082.92 357.597 2050.89 357.597L2052.71 357.597C2020.67 357.597 1994.7 331.368 1994.7 299.014C1994.7 266.66 2020.67 240.432 2052.71 240.432L2050.89 240.432Z" fill="#7A94A7"/>
<path fill-rule="evenodd" clip-rule="evenodd" d="M1891.64 234.992C1923.67 234.992 1949.64 261.221 1949.64 293.575C1949.64 325.929 1923.67 352.157 1891.64 352.157L1363.81 352.157C1331.78 352.157 1305.81 325.929 1305.81 293.575C1305.81 261.221 1331.78 234.992 1363.81 234.992L1891.64 234.992Z" fill="#7A94A7"/>
</svg>
